Metropolis-ThinItalic.ufo
<glyph name="comma" format="2">
	<advance width="229"/>
	<unicode hex="002C"/>
	<outline>
		<contour>
			<point x="-6" y="-103" type="curve"/>
			<point x="18" y="-124" type="line"/>
			<point x="74" y="-65"/>
			<point x="103" y="-17"/>
			<point x="103" y="18" type="curve"/>
			<point x="103" y="37"/>
			<point x="92" y="48"/>
			<point x="75" y="48" type="curve"/>
			<point x="56" y="48"/>
			<point x="41" y="32"/>
			<point x="41" y="13" type="curve"/>
			<point x="41" y="-2"/>
			<point x="51" y="-11"/>
			<point x="67" y="-11" type="curve"/>
			<point x="53" y="-39"/>
			<point x="26" y="-73"/>
		</contour>
	</outline>
</glyph>
<glyph name="zero" format="2">
	<advance width="672"/>
	<unicode hex="0030"/>
	<outline>
		<contour>
			<point x="283" y="-12" type="curve"/>
			<point x="283" y="-12" type="line"/>
			<point x="485" y="-12"/>
			<point x="629" y="233"/>
			<point x="629" y="450" type="curve"/>
			<point x="629" y="600"/>
			<point x="552" y="699"/>
			<point x="425" y="699" type="curve"/>
			<point x="222" y="699"/>
			<point x="79" y="455"/>
			<point x="79" y="237" type="curve"/>
			<point x="79" y="86"/>
			<point x="155" y="-12"/>
		</contour>
		<contour>
			<point x="285" y="24" type="curve"/>
			<point x="285" y="24" type="line"/>
			<point x="177" y="24"/>
			<point x="114" y="110"/>
			<point x="114" y="242" type="curve"/>
			<point x="114" y="433"/>
			<point x="241" y="663"/>
			<point x="423" y="663" type="curve"/>
			<point x="531" y="663"/>
			<point x="594" y="577"/>
			<point x="594" y="446" type="curve"/>
			<point x="594" y="255"/>
			<point x="467" y="24"/>
		</contour>
	</outline>
</glyph>
<glyph name="three" format="2">
	<advance width="590"/>
	<unicode hex="0033"/>
	<outline>
		<contour>
			<point x="248" y="-12" type="curve"/>
			<point x="248" y="-12" type="line"/>
			<point x="378" y="-12"/>
			<point x="509" y="99"/>
			<point x="509" y="226" type="curve"/>
			<point x="509" y="291"/>
			<point x="473" y="337"/>
			<point x="412" y="351" type="curve"/>
			<point x="500" y="377"/>
			<point x="560" y="457"/>
			<point x="560" y="543" type="curve"/>
			<point x="560" y="631"/>
			<point x="487" y="699"/>
			<point x="387" y="699" type="curve"/>
			<point x="303" y="699"/>
			<point x="222" y="657"/>
			<point x="138" y="569" type="curve"/>
			<point x="162" y="543" type="line"/>
			<point x="234" y="623"/>
			<point x="307" y="663"/>
			<point x="381" y="663" type="curve"/>
			<point x="464" y="663"/>
			<point x="524" y="607"/>
			<point x="524" y="537" type="curve"/>
			<point x="524" y="432"/>
			<point x="428" y="366"/>
			<point x="306" y="366" type="curve"/>
			<point x="245" y="366" type="line"/>
			<point x="237" y="330" type="line"/>
			<point x="301" y="330" type="line" smooth="yes"/>
			<point x="411" y="330"/>
			<point x="472" y="290"/>
			<point x="472" y="221" type="curve"/>
			<point x="472" y="117"/>
			<point x="361" y="24"/>
			<point x="250" y="24" type="curve"/>
			<point x="164" y="24"/>
			<point x="104" y="63"/>
			<point x="68" y="144" type="curve"/>
			<point x="38" y="121" type="line"/>
			<point x="87" y="32"/>
			<point x="155" y="-12"/>
		</contour>
	</outline>
</glyph>
<glyph name="equal" format="2">
	<advance width="658"/>
	<unicode hex="003D"/>
	<outline>
		<contour>
			<point x="142" y="462" type="line"/>
			<point x="134" y="426" type="line"/>
			<point x="593" y="426" type="line"/>
			<point x="601" y="462" type="line"/>
		</contour>
		<contour>
			<point x="96" y="242" type="line"/>
			<point x="88" y="206" type="line"/>
			<point x="547" y="206" type="line"/>
			<point x="555" y="242" type="line"/>
		</contour>
	</outline>
</glyph>
<glyph name="greater" format="2">
	<advance width="617"/>
	<unicode hex="003E"/>
	<outline>
		<contour>
			<point x="59" y="146" type="line"/>
			<point x="50" y="102" type="line"/>
			<point x="551" y="322" type="line"/>
			<point x="559" y="366" type="line"/>
			<point x="150" y="586" type="line"/>
			<point x="141" y="542" type="line"/>
			<point x="508" y="344" type="line"/>
		</contour>
	</outline>
</glyph>
<glyph name="at" format="2">
	<advance width="960"/>
	<unicode hex="0040"/>
	<outline>
		<contour>
			<point x="389" y="-116" type="curve"/>
			<point x="389" y="-116" type="line"/>
			<point x="471" y="-116"/>
			<point x="557" y="-92"/>
			<point x="640" y="-47" type="curve"/>
			<point x="627" y="-20" type="line"/>
			<point x="552" y="-60"/>
			<point x="474" y="-81"/>
			<point x="399" y="-81" type="curve"/>
			<point x="238" y="-81"/>
			<point x="117" y="36"/>
			<point x="117" y="193" type="curve"/>
			<point x="117" y="448"/>
			<point x="315" y="639"/>
			<point x="580" y="639" type="curve"/>
			<point x="741" y="639"/>
			<point x="861" y="527"/>
			<point x="861" y="378" type="curve"/>
			<point x="861" y="269"/>
			<point x="784" y="114"/>
			<point x="683" y="114" type="curve"/>
			<point x="644" y="114"/>
			<point x="616" y="136"/>
			<point x="616" y="173" type="curve"/>
			<point x="616" y="210"/>
			<point x="682" y="360"/>
			<point x="735" y="481" type="curve"/>
			<point x="696" y="486" type="line"/>
			<point x="668" y="420" type="line"/>
			<point x="655" y="463"/>
			<point x="613" y="501"/>
			<point x="542" y="501" type="curve"/>
			<point x="403" y="501"/>
			<point x="267" y="345"/>
			<point x="267" y="206" type="curve"/>
			<point x="267" y="129"/>
			<point x="313" y="78"/>
			<point x="389" y="78" type="curve"/>
			<point x="458" y="78"/>
			<point x="528" y="116"/>
			<point x="575" y="164" type="curve"/>
			<point x="574" y="110"/>
			<point x="609" y="78"/>
			<point x="666" y="78" type="curve"/>
			<point x="801" y="78"/>
			<point x="898" y="243"/>
			<point x="898" y="385" type="curve"/>
			<point x="898" y="551"/>
			<point x="766" y="675"/>
			<point x="590" y="675" type="curve"/>
			<point x="297" y="675"/>
			<point x="78" y="466"/>
			<point x="78" y="187" type="curve"/>
			<point x="78" y="14"/>
			<point x="211" y="-116"/>
		</contour>
		<contour>
			<point x="405" y="114" type="curve"/>
			<point x="405" y="114" type="line"/>
			<point x="343" y="114"/>
			<point x="305" y="155"/>
			<point x="305" y="217" type="curve"/>
			<point x="305" y="333"/>
			<point x="418" y="465"/>
			<point x="538" y="465" type="curve"/>
			<point x="600" y="465"/>
			<point x="634" y="428"/>
			<point x="634" y="371" type="curve"/>
			<point x="634" y="259"/>
			<point x="521" y="114"/>
		</contour>
	</outline>
</glyph>
<glyph name="E" format="2">
	<advance width="624"/>
	<unicode hex="0045"/>
	<anchor x="186" y="687" name="ae_upper"/>
	<anchor x="494" y="0" name="bottom"/>
	<anchor x="414" y="687" name="top"/>
	<outline>
		<contour>
			<point x="186" y="687" type="line"/>
			<point x="43" y="0" type="line"/>
			<point x="494" y="0" type="line"/>
			<point x="502" y="36" type="line"/>
			<point x="78" y="36" type="line"/>
			<point x="85" y="26" type="line"/>
			<point x="150" y="342" type="line"/>
			<point x="139" y="332" type="line"/>
			<point x="533" y="332" type="line"/>
			<point x="540" y="368" type="line"/>
			<point x="148" y="368" type="line"/>
			<point x="154" y="358" type="line"/>
			<point x="216" y="661" type="line"/>
			<point x="205" y="651" type="line"/>
			<point x="630" y="651" type="line"/>
			<point x="637" y="687" type="line"/>
		</contour>
	</outline>
</glyph>
<glyph name="I" format="2">
	<advance width="230"/>
	<unicode hex="0049"/>
	<anchor x="204" y="687" name="top"/>
	<anchor x="79" y="0" name="bottom"/>
	<outline>
		<contour>
			<point x="186" y="687" type="line"/>
			<point x="43" y="0" type="line"/>
			<point x="79" y="0" type="line"/>
			<point x="222" y="687" type="line"/>
		</contour>
	</outline>
</glyph>
<glyph name="N" format="2">
	<advance width="734"/>
	<unicode hex="004E"/>
	<anchor x="456" y="687" name="top"/>
	<anchor x="314" y="0" name="bottom"/>
	<outline>
		<contour>
			<point x="186" y="687" type="line"/>
			<point x="43" y="0" type="line"/>
			<point x="79" y="0" type="line"/>
			<point x="211" y="631" type="line"/>
			<point x="548" y="0" type="line"/>
			<point x="583" y="0" type="line"/>
			<point x="726" y="687" type="line"/>
			<point x="690" y="687" type="line"/>
			<point x="559" y="56" type="line"/>
			<point x="222" y="687" type="line"/>
		</contour>
	</outline>
</glyph>
<glyph name="Y" format="2">
	<advance width="742"/>
	<unicode hex="0059"/>
	<anchor x="457" y="687" name="top"/>
	<outline>
		<contour>
			<point x="357" y="279" type="line"/>
			<point x="298" y="0" type="line"/>
			<point x="334" y="0" type="line"/>
			<point x="393" y="279" type="line"/>
			<point x="758" y="687" type="line"/>
			<point x="711" y="687" type="line"/>
			<point x="379" y="317" type="line"/>
			<point x="202" y="687" type="line"/>
			<point x="162" y="687" type="line"/>
		</contour>
	</outline>
</glyph>
<glyph name="Z" format="2">
	<advance width="656"/>
	<unicode hex="005A"/>
	<anchor x="418" y="687" name="top"/>
	<outline>
		<contour>
			<point x="27" y="30" type="line"/>
			<point x="22" y="0" type="line"/>
			<point x="526" y="0" type="line"/>
			<point x="534" y="36" type="line"/>
			<point x="74" y="36" type="line"/>
			<point x="660" y="657" type="line"/>
			<point x="665" y="687" type="line"/>
			<point x="171" y="687" type="line"/>
			<point x="164" y="651" type="line"/>
			<point x="613" y="651" type="line"/>
		</contour>
	</outline>
</glyph>
<glyph name="asciicircum" format="2">
	<advance width="520"/>
	<unicode hex="005E"/>
	<outline>
		<contour>
			<point x="328" y="687" type="line"/>
			<point x="111" y="413" type="line"/>
			<point x="156" y="413" type="line"/>
			<point x="342" y="647" type="line"/>
			<point x="430" y="413" type="line"/>
			<point x="473" y="413" type="line"/>
			<point x="370" y="687" type="line"/>
		</contour>
	</outline>
</glyph>
<glyph name="s" format="2">
	<advance width="484"/>
	<unicode hex="0073"/>
	<anchor x="307" y="517" name="top"/>
	<anchor x="199" y="0" name="bottom"/>
	<outline>
		<contour>
			<point x="204" y="-12" type="curve"/>
			<point x="204" y="-12" type="line"/>
			<point x="301" y="-12"/>
			<point x="411" y="53"/>
			<point x="411" y="149" type="curve"/>
			<point x="411" y="208"/>
			<point x="368" y="246"/>
			<point x="269" y="278" type="curve"/>
			<point x="179" y="310"/>
			<point x="141" y="341"/>
			<point x="141" y="382" type="curve"/>
			<point x="141" y="441"/>
			<point x="219" y="493"/>
			<point x="301" y="493" type="curve"/>
			<point x="352" y="493"/>
			<point x="408" y="475"/>
			<point x="452" y="444" type="curve"/>
			<point x="478" y="470" type="line"/>
			<point x="429" y="506"/>
			<point x="365" y="529"/>
			<point x="303" y="529" type="curve"/>
			<point x="210" y="529"/>
			<point x="105" y="466"/>
			<point x="105" y="373" type="curve"/>
			<point x="105" y="318"/>
			<point x="149" y="280"/>
			<point x="251" y="248" type="curve"/>
			<point x="337" y="218"/>
			<point x="374" y="188"/>
			<point x="374" y="143" type="curve"/>
			<point x="374" y="70"/>
			<point x="284" y="24"/>
			<point x="206" y="24" type="curve"/>
			<point x="146" y="24"/>
			<point x="80" y="49"/>
			<point x="29" y="92" type="curve"/>
			<point x="4" y="66" type="line"/>
			<point x="54" y="18"/>
			<point x="128" y="-12"/>
		</contour>
	</outline>
</glyph>
<glyph name="t" format="2">
	<advance width="384"/>
	<unicode hex="0074"/>
	<anchor x="192" y="0" name="bottom"/>
	<outline>
		<contour>
			<point x="189" y="-12" type="curve"/>
			<point x="189" y="-12" type="line"/>
			<point x="221" y="-12"/>
			<point x="258" y="-1"/>
			<point x="290" y="20" type="curve"/>
			<point x="273" y="51" type="line"/>
			<point x="250" y="35"/>
			<point x="220" y="24"/>
			<point x="193" y="24" type="curve"/>
			<point x="160" y="24"/>
			<point x="140" y="50"/>
			<point x="140" y="89" type="curve"/>
			<point x="140" y="115"/>
			<point x="145" y="126"/>
			<point x="256" y="659" type="curve"/>
			<point x="220" y="659" type="line"/>
			<point x="111" y="135"/>
			<point x="104" y="115"/>
			<point x="104" y="84" type="curve"/>
			<point x="104" y="27"/>
			<point x="136" y="-12"/>
		</contour>
		<contour>
			<point x="99" y="517" type="line"/>
			<point x="92" y="481" type="line"/>
			<point x="355" y="481" type="line"/>
			<point x="362" y="517" type="line"/>
		</contour>
	</outline>
</glyph>
<glyph name="x" format="2">
	<advance width="531"/>
	<unicode hex="0078"/>
	<outline>
		<contour>
			<point x="107" y="517" type="line"/>
			<point x="390" y="0" type="line"/>
			<point x="433" y="0" type="line"/>
			<point x="149" y="517" type="line"/>
		</contour>
		<contour>
			<point x="488" y="517" type="line"/>
			<point x="-10" y="0" type="line"/>
			<point x="35" y="0" type="line"/>
			<point x="534" y="517" type="line"/>
		</contour>
	</outline>
</glyph>
<glyph name="bar" format="2">
	<advance width="238"/>
	<unicode hex="007C"/>
	<outline>
		<contour>
			<point x="202" y="743" type="line"/>
			<point x="32" y="-74" type="line"/>
			<point x="68" y="-74" type="line"/>
			<point x="238" y="743" type="line"/>
		</contour>
	</outline>
</glyph>
<glyph name="ae" format="2">
	<advance width="960"/>
	<unicode hex="00E6"/>
	<anchor x="752" y="517" name="top"/>
	<anchor x="645" y="-12" name="bottom"/>
	<outline>
		<contour>
			<point x="191" y="-12" type="curve"/>
			<point x="191" y="-12" type="line"/>
			<point x="300" y="-12"/>
			<point x="395" y="50"/>
			<point x="442" y="145" type="curve"/>
			<point x="465" y="53"/>
			<point x="540" y="-12"/>
			<point x="640" y="-12" type="curve"/>
			<point x="721" y="-12"/>
			<point x="819" y="20"/>
			<point x="871" y="67" type="curve"/>
			<point x="850" y="96" type="line"/>
			<point x="798" y="49"/>
			<point x="720" y="24"/>
			<point x="645" y="24" type="curve"/>
			<point x="543" y="24"/>
			<point x="471" y="105"/>
			<point x="471" y="209" type="curve"/>
			<point x="471" y="350"/>
			<point x="599" y="493"/>
			<point x="745" y="493" type="curve"/>
			<point x="836" y="493"/>
			<point x="900" y="448"/>
			<point x="900" y="385" type="curve"/>
			<point x="900" y="318"/>
			<point x="826" y="278"/>
			<point x="700" y="278" type="curve"/>
			<point x="465" y="278" type="line"/>
			<point x="458" y="242" type="line"/>
			<point x="693" y="242" type="line" smooth="yes"/>
			<point x="846" y="242"/>
			<point x="936" y="296"/>
			<point x="936" y="387" type="curve"/>
			<point x="936" y="470"/>
			<point x="859" y="529"/>
			<point x="751" y="529" type="curve"/>
			<point x="649" y="529"/>
			<point x="552" y="468"/>
			<point x="493" y="382" type="curve"/>
			<point x="488" y="471"/>
			<point x="431" y="529"/>
			<point x="330" y="529" type="curve"/>
			<point x="277" y="529"/>
			<point x="207" y="513"/>
			<point x="143" y="480" type="curve"/>
			<point x="154" y="447" type="line"/>
			<point x="208" y="476"/>
			<point x="269" y="493"/>
			<point x="323" y="493" type="curve"/>
			<point x="444" y="493"/>
			<point x="469" y="403"/>
			<point x="451" y="316" type="curve"/>
			<point x="445" y="287" type="line"/>
			<point x="391" y="309"/>
			<point x="326" y="325"/>
			<point x="267" y="325" type="curve"/>
			<point x="144" y="325"/>
			<point x="48" y="255"/>
			<point x="27" y="157" type="curve"/>
			<point x="6" y="58"/>
			<point x="75" y="-12"/>
		</contour>
		<contour>
			<point x="197" y="24" type="curve"/>
			<point x="197" y="24" type="line"/>
			<point x="102" y="24"/>
			<point x="46" y="77"/>
			<point x="62" y="152" type="curve"/>
			<point x="79" y="232"/>
			<point x="163" y="289"/>
			<point x="270" y="289" type="curve"/>
			<point x="328" y="289"/>
			<point x="389" y="272"/>
			<point x="439" y="254" type="curve"/>
			<point x="431" y="217" type="line" smooth="yes"/>
			<point x="407" y="105"/>
			<point x="310" y="24"/>
		</contour>
	</outline>
</glyph>
<glyph name="divide" format="2">
	<advance width="618"/>
	<unicode hex="00F7"/>
	<outline>
		<contour>
			<point x="93" y="352" type="line"/>
			<point x="85" y="316" type="line"/>
			<point x="544" y="316" type="line"/>
			<point x="552" y="352" type="line"/>
		</contour>
		<contour>
			<point x="283" y="142" type="curve"/>
			<point x="283" y="142" type="line"/>
			<point x="299" y="142"/>
			<point x="315" y="158"/>
			<point x="315" y="176" type="curve"/>
			<point x="315" y="190"/>
			<point x="305" y="202"/>
			<point x="290" y="202" type="curve"/>
			<point x="270" y="202"/>
			<point x="255" y="183"/>
			<point x="255" y="168" type="curve"/>
			<point x="255" y="153"/>
			<point x="266" y="142"/>
		</contour>
		<contour>
			<point x="350" y="466" type="curve"/>
			<point x="350" y="466" type="line"/>
			<point x="367" y="466"/>
			<point x="383" y="483"/>
			<point x="383" y="501" type="curve"/>
			<point x="383" y="515"/>
			<point x="372" y="526"/>
			<point x="357" y="526" type="curve"/>
			<point x="337" y="526"/>
			<point x="323" y="509"/>
			<point x="323" y="494" type="curve"/>
			<point x="323" y="478"/>
			<point x="333" y="466"/>
		</contour>
	</outline>
</glyph>
<glyph name="hungarumlaut" format="2">
	<advance width="424"/>
	<unicode hex="02DD"/>
	<anchor x="244" y="704" name="top"/>
	<anchor x="206" y="517" name="_top"/>
	<outline>
		<contour>
			<point x="266" y="718" type="line"/>
			<point x="112" y="576" type="line"/>
			<point x="161" y="576" type="line"/>
			<point x="306" y="709" type="line"/>
		</contour>
		<contour>
			<point x="432" y="718" type="line"/>
			<point x="278" y="576" type="line"/>
			<point x="327" y="576" type="line"/>
			<point x="472" y="709" type="line"/>
		</contour>
	</outline>
</glyph>
<glyph name="minus" format="2">
	<advance width="644"/>
	<unicode hex="2212"/>
	<outline>
		<contour>
			<point x="112" y="352" type="line"/>
			<point x="104" y="316" type="line"/>
			<point x="563" y="316" type="line"/>
			<point x="571" y="352" type="line"/>
		</contour>
	</outline>
</glyph>
